<?xml version="1.0" encoding="utf-8"?>
<!-- Generator: Adobe Illustrator 21.0.2, SVG Export Plug-In . SVG Version: 6.00 Build 0)  -->
<svg version="1.1" id="Layer_1" xmlns="http://www.w3.org/2000/svg" xmlns:xlink="http://www.w3.org/1999/xlink" x="0px" y="0px"
	 viewBox="0 0 48 48" style="enable-background:new 0 0 48 48;" xml:space="preserve">
<style type="text/css">
	.st0{fill:#FFFFFF;}
	.st1{fill:none;}
</style>
<path class="st0" d="M40,12h-4.4c0.2-0.6,0.4-1.3,0.4-2c0-3.3-2.7-6-6-6c-2.1,0-3.9,1.1-5,2.7L24,8l-1-1.4C21.9,5.1,20.1,4,18,4
	c-3.3,0-6,2.7-6,6c0,0.7,0.1,1.4,0.4,2H8c-2.2,0-4,1.8-4,4l0,22c0,2.2,1.8,4,4,4h32c2.2,0,4-1.8,4-4V16C44,13.8,42.2,12,40,12z
	 M30,8c1.1,0,2,0.9,2,2s-0.9,2-2,2s-2-0.9-2-2S28.9,8,30,8z M18,8c1.1,0,2,0.9,2,2s-0.9,2-2,2s-2-0.9-2-2S16.9,8,18,8z M40,38H8v-4
	h32V38z M40,28H8V16h10.2L14,21.7l3.2,2.3l4.8-6.5l2-2.7l2,2.7l4.8,6.5l3.2-2.3L29.8,16H40V28z"/>
<path class="st1" d="M0,0h48v48H0V0z"/>
</svg>
